HIERARCHY
ROOT Hips
{
  OFFSET -1.22667 96.1883 60.4921
  CHANNELS 6 Xposition Yposition Zposition Zrotation Xrotation Yrotation
  JOINT Chest
  {
    OFFSET 0 10.5691 -1.07959
    CHANNELS 6 Xposition Yposition Zposition Zrotation Xrotation Yrotation
    JOINT Chest2
    {
      OFFSET 0 11.6675 1.08235
      CHANNELS 6 Xposition Yposition Zposition Zrotation Xrotation Yrotation
      JOINT Chest3
      {
        OFFSET 0 10.5876 0
        CHANNELS 6 Xposition Yposition Zposition Zrotation Xrotation Yrotation
        JOINT Chest4
        {
          OFFSET 0 10.5876 0
          CHANNELS 6 Xposition Yposition Zposition Zrotation Xrotation Yrotation
          JOINT Neck
          {
            OFFSET 0 14.88 0
            CHANNELS 6 Xposition Yposition Zposition Zrotation Xrotation Yrotation
            JOINT Head
            {
              OFFSET 0 9.61472 2.16553
              CHANNELS 6 Xposition Yposition Zposition Zrotation Xrotation Yrotation
              End Site
              {
                OFFSET 0 0 0
              }
            }
          }
          JOINT RightCollar
          {
            OFFSET -3.23953 8.30385 0
            CHANNELS 6 Xposition Yposition Zposition Zrotation Xrotation Yrotation
            JOINT RightShoulder
            {
              OFFSET -15.1725 0 0
              CHANNELS 6 Xposition Yposition Zposition Zrotation Xrotation Yrotation
              JOINT RightElbow
              {
                OFFSET -32.4113 0 0
                CHANNELS 6 Xposition Yposition Zposition Zrotation Xrotation Yrotation
                JOINT RightWrist
                {
                  OFFSET -26.4919 0 1.0813
                  CHANNELS 6 Xposition Yposition Zposition Zrotation Xrotation Yrotation
                  End Site
                  {
                    OFFSET 0 0 0
                  }
                }
              }
            }
          }
          JOINT LeftCollar
          {
            OFFSET 3.23953 8.30385 0
            CHANNELS 6 Xposition Yposition Zposition Zrotation Xrotation Yrotation
            JOINT LeftShoulder
            {
              OFFSET 15.1725 0 0
              CHANNELS 6 Xposition Yposition Zposition Zrotation Xrotation Yrotation
              JOINT LeftElbow
              {
                OFFSET 32.4113 0 0
                CHANNELS 6 Xposition Yposition Zposition Zrotation Xrotation Yrotation
                JOINT LeftWrist
                {
                  OFFSET 26.4919 0 1.0813
                  CHANNELS 6 Xposition Yposition Zposition Zrotation Xrotation Yrotation
                  End Site
                  {
                    OFFSET 0 0 0
                  }
                }
              }
            }
          }
        }
      }
    }
  }
  JOINT RightHip
  {
    OFFSET -8.63673 0.00547028 0
    CHANNELS 6 Xposition Yposition Zposition Zrotation Xrotation Yrotation
    JOINT RightKnee
    {
      OFFSET 0 -44.4932 -2.13963
      CHANNELS 6 Xposition Yposition Zposition Zrotation Xrotation Yrotation
      JOINT RightAnkle
      {
        OFFSET 0 -43.4407 -3.54051
        CHANNELS 6 Xposition Yposition Zposition Zrotation Xrotation Yrotation
        JOINT RightToe
        {
          OFFSET 0 -8.39271 19.1252
          CHANNELS 6 Xposition Yposition Zposition Zrotation Xrotation Yrotation
          End Site
          {
            OFFSET 0 0 0
          }
        }
      }
    }
  }
  JOINT LeftHip
  {
    OFFSET 8.63673 0.00547028 0
    CHANNELS 6 Xposition Yposition Zposition Zrotation Xrotation Yrotation
    JOINT LeftKnee
    {
      OFFSET 0 -44.4933 -2.13962
      CHANNELS 6 Xposition Yposition Zposition Zrotation Xrotation Yrotation
      JOINT LeftAnkle
      {
        OFFSET 0 -43.4408 -3.5405
        CHANNELS 6 Xposition Yposition Zposition Zrotation Xrotation Yrotation
        JOINT LeftToe
        {
          OFFSET 0 -8.3927 19.1252
          CHANNELS 6 Xposition Yposition Zposition Zrotation Xrotation Yrotation
          End Site
          {
            OFFSET 0 0 0
          }
        }
      }
    }
  }
}
MOTION
Frames:	5
Frame Time:	0.0333333
-1.22784 96.1877 60.4949 -0.00493064 -0.00162387 179.999 -1.55431e-015 10.5691 -1.07959 0.00670204 -0.00540306 -0.0143283 -8.88178e-016 11.6675 1.08235 0.0134067 -0.010807 -0.00382341 -1.11022e-015 10.5876 -7.10543e-015 0.0134067 -0.010807 -0.00382341 -1.33227e-015 10.5876 -7.10543e-015 0.0134067 -0.010807 -0.0038234 -1.9984e-015 14.88 -7.49065e-006 -0.291014 -0.326019 0.0556274 -1.11022e-015 9.61472 2.16553 0.332608 0.542953 -0.108762 -3.23953 8.30385 0 1.09196e-019 -1.2424e-017 -6.21202e-018 -15.1725 -4.76837e-006 -7.10543e-015 -3.34113 -31.7506 -4.53575 -32.4113 3.40385e-006 3.07919e-006 13.7186 0.409192 1.32152 -26.4919 -1.56836e-006 1.0813 -20.5559 0.209477 -2.87982 3.23953 8.30385 -7.10543e-015 1.09196e-019 -1.2424e-017 -6.21202e-018 15.1725 -4.76837e-006 -7.10543e-015 1.69644 -39.0007 0.248626 32.4113 -3.55128e-007 1.04245e-006 -13.0803 4.14348 2.34107 26.4919 6.02036e-007 1.0813 21.4052 -0.533103 -1.09082 -8.63673 0.00547028 1.42109e-014 -3.89519 -3.60339 -2.73121 -6.85604e-006 -44.4932 -2.13963 3.66627 3.62932 2.49649 3.35951e-008 -43.4407 -3.54051 0.0692947 0.125198 0.645593 -5.66749e-008 -8.39271 19.1252 0.242613 0.0619249 -1.11551 8.63673 0.00547028 -7.10543e-015 2.62815 -3.82269 0.98425 7.30033e-007 -44.4933 -2.13962 -2.87128 3.82277 -0.642347 3.51787e-007 -43.4408 -3.5405 0.0854193 0.111121 -0.10956 -1.38711e-007 -8.3927 19.1252 0.0235322 -0.122629 0.294851 
-1.22384 96.1968 60.5 -0.00555779 0.004426 -179.983 -1.55431e-015 10.5691 -1.07959 0.0221249 -0.0209679 -0.0143283 -1.11022e-015 11.6675 1.08235 0.0442495 -0.0419389 -0.0190332 -1.33227e-015 10.5876 -7.10543e-015 0.0442495 -0.0419389 -0.0190332 -1.33227e-015 10.5876 -7.10543e-015 0.0442495 -0.0419389 -0.0190332 -1.9984e-015 14.88 -7.49065e-006 -1.07831 -1.05979 0.240168 -1.55431e-015 9.61472 2.16553 1.33865 1.76934 -0.389783 -3.23953 8.30385 7.10543e-015 -2.03104e-017 -2.48481e-017 -0 -15.1725 -4.76837e-006 -7.10543e-015 -3.30671 -32.7135 -4.14975 -32.4113 3.40385e-006 3.07919e-006 13.4088 0.775208 0.575404 -26.4919 -1.56836e-006 1.0813 -19.9453 0.123781 -2.43516 3.23953 8.30385 0 -2.03104e-017 -2.48481e-017 -0 15.1725 -4.76837e-006 0 1.4832 -39.2545 0.237288 32.4113 -3.55128e-007 1.04245e-006 -12.9481 4.43444 2.34196 26.4919 6.02036e-007 1.0813 21.2967 -0.577263 -1.34112 -8.63673 0.00547028 7.10543e-015 -3.82047 -3.73666 -2.8509 -6.85604e-006 -44.4932 -2.13963 3.49198 3.94315 2.64837 3.35951e-008 -43.4407 -3.54051 0.302909 0.00339804 0.836011 -5.66749e-008 -8.39271 19.1252 0.319158 -0.0203206 -1.73747 8.63673 0.00547028 0 2.57193 -3.91089 0.834407 7.30033e-007 -44.4933 -2.13962 -2.76596 3.98152 -0.272047 3.51787e-007 -43.4408 -3.5405 -0.195077 0.0792007 -0.29842 -1.38711e-007 -8.3927 19.1252 0.0227772 -0.378888 1.13606 
-1.20071 96.2276 60.4954 0.0286593 0.0344939 -179.922 -1.55431e-015 10.5691 -1.07959 0.00795389 -0.0203983 -0.0138829 -1.11022e-015 11.6675 1.08235 0.0160722 -0.0407987 -0.0289616 -1.33227e-015 10.5876 -7.10543e-015 0.0160722 -0.0407987 -0.0289616 -1.33227e-015 10.5876 0 0.0160722 -0.0407987 -0.0289616 -1.77636e-015 14.88 -7.49065e-006 -0.861302 -0.309436 0.300445 -1.33227e-015 9.61472 2.16553 1.34707 0.535082 -0.258843 -3.23953 8.30385 0 1.03129e-018 2.48481e-017 3.10601e-018 -15.1725 -4.76837e-006 0 -3.10768 -33.0987 -4.09681 -32.4113 3.40385e-006 3.07919e-006 13.2545 0.975761 0.410581 -26.4919 -1.56836e-006 1.0813 -20.1886 0.109001 -2.34133 3.23953 8.30385 0 1.03129e-018 2.48481e-017 3.10601e-018 15.1725 -4.76837e-006 -7.10543e-015 1.48103 -39.4743 0.207472 32.4113 -3.55128e-007 1.04245e-006 -12.8379 4.44491 2.342 26.4919 6.02036e-007 1.0813 21.2728 -0.582448 -1.35719 -8.63673 0.00547028 7.10543e-015 -3.8585 -3.44729 -2.79646 -6.85604e-006 -44.4932 -2.13963 3.6785 3.43562 2.6181 3.35951e-008 -43.4407 -3.54051 -0.0118563 0.241666 0.620357 -5.66749e-008 -8.39271 19.1252 0.159914 -0.184858 -1.34009 8.63673 0.00547028 0 2.64352 -3.80222 1.07942 7.30033e-007 -44.4933 -2.13962 -2.79653 3.85426 -0.630365 3.51787e-007 -43.4408 -3.5405 0.0028978 0.134415 -0.147055 -1.38711e-007 -8.3927 19.1252 0.148151 -0.404202 0.702866 
-1.19104 96.2243 60.515 0.010685 0.0233043 -179.924 -1.55431e-015 10.5691 -1.07959 0.00798557 -0.0241596 -0.0121916 -8.88178e-016 11.6675 1.08235 0.0146647 -0.0483209 -0.0240573 -8.88178e-016 10.5876 -7.10543e-015 0.0146647 -0.048321 -0.0240573 -1.33227e-015 10.5876 0 0.0146647 -0.0483209 -0.0240573 -1.55431e-015 14.88 -7.49065e-006 -0.969591 -0.263699 0.326648 -1.11022e-015 9.61472 2.16553 1.43618 0.45103 -0.287768 -3.23953 8.30385 -7.10543e-015 -1.75926e-018 0 -1.55301e-018 -15.1725 -4.76837e-006 7.10543e-015 -3.06765 -33.4089 -4.02548 -32.4113 3.40385e-006 3.07919e-006 13.1124 1.42633 0.189112 -26.4919 -1.56836e-006 1.0813 -20.1395 0.0469812 -1.9937 3.23953 8.30385 -7.10543e-015 -1.75926e-018 0 -1.55301e-018 15.1725 -4.76837e-006 0 1.41108 -39.4542 0.191401 32.4113 -3.55128e-007 1.04245e-006 -12.8455 4.4021 2.34186 26.4919 6.02036e-007 1.0813 21.3083 -0.587229 -1.31092 -8.63673 0.00547028 7.10543e-015 -3.88077 -3.5573 -2.73864 -6.85604e-006 -44.4932 -2.13963 3.68175 3.61344 2.53447 3.35951e-008 -43.4407 -3.54051 0.0614424 0.217388 0.60477 -5.66749e-008 -8.39271 19.1252 0.114583 -0.245318 -1.26255 8.63673 0.00547028 -7.10543e-015 2.60798 -3.83277 0.930011 7.30033e-007 -44.4933 -2.13962 -2.72346 3.86068 -0.460063 3.51787e-007 -43.4408 -3.5405 -0.183963 0.115687 -0.270221 -1.38711e-007 -8.3927 19.1252 0.161379 -0.457853 0.824592 
-1.16653 96.2275 60.5281 0.0296746 0.0103675 -179.924 -1.77636e-015 10.5691 -1.07959 0.00935085 -0.0259264 -0.0100809 -1.11022e-015 11.6675 1.08235 0.0084729 -0.0518543 -0.0230957 -1.55431e-015 10.5876 -1.42109e-014 0.0084729 -0.0518543 -0.0230956 -1.33227e-015 10.5876 -7.10543e-015 0.0084729 -0.0518543 -0.0230957 -1.9984e-015 14.88 -7.49065e-006 -0.966814 -0.225484 0.326869 -1.11022e-015 9.61472 2.16553 1.46021 0.390945 -0.292662 -3.23953 8.30385 -7.10543e-015 7.08255e-019 -4.96962e-017 -0 -15.1725 -4.76837e-006 0 -3.10095 -32.9392 -4.20149 -32.4113 3.40385e-006 3.07919e-006 13.3038 0.863931 0.58149 -26.4919 -1.56836e-006 1.0813 -20.2731 0.129353 -2.4533 3.23953 8.30385 -7.10543e-015 7.08255e-019 -4.96962e-017 -0 15.1725 -4.76837e-006 -7.10543e-015 1.44413 -39.4571 0.23257 32.4113 -3.55128e-007 1.04245e-006 -12.8413 4.42997 2.34195 26.4919 6.02036e-007 1.0813 21.2256 -0.590625 -1.35041 -8.63673 0.00547028 7.10543e-015 -3.84385 -3.53187 -2.78199 -6.85604e-006 -44.4932 -2.13963 3.67192 3.51022 2.58682 3.35951e-008 -43.4407 -3.54051 -0.0141227 0.243722 0.583191 -5.66749e-008 -8.39271 19.1252 0.116664 -0.23349 -1.24179 8.63673 0.00547028 -7.10543e-015 2.6482 -3.84754 0.930916 7.30033e-007 -44.4933 -2.13962 -2.74003 3.85809 -0.450791 3.51787e-007 -43.4408 -3.5405 -0.197742 0.063552 -0.378029 -1.38711e-007 -8.3927 19.1252 0.048791 -0.407871 1.12384 
